<?xml version="1.0" encoding="utf-8"?>
<!-- Generator: Adobe Illustrator 25.0.0, SVG Export Plug-In . SVG Version: 6.00 Build 0)  -->
<svg version="1.1" id="图层_1" xmlns="http://www.w3.org/2000/svg" xmlns:xlink="http://www.w3.org/1999/xlink" x="0px" y="0px"
	 viewBox="0 0 36 36" style="enable-background:new 0 0 36 36;" xml:space="preserve">
<style type="text/css">
	.st0{fill:#FFFFFF;}
</style>
<path class="st0" d="M22.2,22.2L25,25c-3.9,3.9-10.2,3.9-14.1,0c-2.2-2.2-3.2-5.3-2.9-8.2l-4,0.4C3.8,21.1,5.2,25,8.1,27.9
	c5.5,5.5,14.3,5.5,19.8,0l2.8,2.8l0.8-9.3L22.2,22.2z M27.9,8.1c-5.5-5.5-14.3-5.5-19.8,0L5.3,5.3l-0.8,9.3l9.3-0.8L11,11
	c3.9-3.9,10.2-3.9,14.1,0c2.2,2.2,3.2,5.3,2.9,8.2l4-0.4C32.2,14.9,30.8,11,27.9,8.1z"/>
</svg>
